<svg id="Capa_1" data-name="Capa 1" xmlns="http://www.w3.org/2000/svg" xmlns:xlink="http://www.w3.org/1999/xlink" viewBox="0 0 1434.4 496.1"><defs><style>.cls-1,.cls-13{fill:none;}.cls-2{fill:#616769;}.cls-3{fill:#027197;}.cls-4{opacity:0.3;isolation:isolate;}.cls-5{clip-path:url(#clip-path);}.cls-6{clip-path:url(#clip-path-2);}.cls-7{fill:#fff;}.cls-8{fill:#7e8587;}.cls-9{clip-path:url(#clip-path-3);}.cls-10{clip-path:url(#clip-path-4);}.cls-11{clip-path:url(#clip-path-5);}.cls-12{clip-path:url(#clip-path-6);}.cls-13{stroke:#555454;stroke-miterlimit:10;stroke-width:5px;}.cls-14{fill:#555454;}.cls-15{fill:#63605f;}.cls-16{fill:#1d1d1b;}</style><clipPath id="clip-path"><rect class="cls-1" x="285.76" y="15.85" width="102.51" height="301.15"/></clipPath><clipPath id="clip-path-2"><rect class="cls-1" x="285.76" y="15.86" width="102.51" height="301.13"/></clipPath><clipPath id="clip-path-3"><rect class="cls-1" x="179.98" y="197.11" width="102.34" height="165.92"/></clipPath><clipPath id="clip-path-4"><rect class="cls-1" x="179.99" y="197.13" width="102.34" height="165.9"/></clipPath><clipPath id="clip-path-5"><rect class="cls-1" x="29.43" y="307.44" width="147.13" height="99.05"/></clipPath><clipPath id="clip-path-6"><rect class="cls-1" x="29.44" y="307.45" width="147.12" height="99.03"/></clipPath></defs><title>logo2018</title><path class="cls-2" d="M590.13,334c0,12.48-2.32,23.48-7,32.87a68.92,68.92,0,0,1-18.94,23.63,82.26,82.26,0,0,1-27.92,14.19,117.17,117.17,0,0,1-34.15,4.79,119.28,119.28,0,0,1-22.88-2,127.43,127.43,0,0,1-18.64-4.84,84.38,84.38,0,0,1-13.51-6,38.66,38.66,0,0,1-7.79-5.53,13.93,13.93,0,0,1-3.39-6.87,61.7,61.7,0,0,1-1-13,94.06,94.06,0,0,1,.4-9.54,27.13,27.13,0,0,1,1.17-6.25,7,7,0,0,1,2.2-3.39,5.32,5.32,0,0,1,3.2-1c1.74,0,4.13,1,7.25,3.06s7.18,4.21,12.08,6.67a110.83,110.83,0,0,0,17.51,6.71,82.91,82.91,0,0,0,23.61,3,53.94,53.94,0,0,0,15.79-2.11,36.22,36.22,0,0,0,11.83-6,24.83,24.83,0,0,0,7.43-9.52A30.3,30.3,0,0,0,540,340.32a22.2,22.2,0,0,0-4.43-13.88,43.53,43.53,0,0,0-11.47-10.31,115.77,115.77,0,0,0-16-8.42c-6-2.67-12.18-5.42-18.59-8.4a167,167,0,0,1-18.5-10A75.16,75.16,0,0,1,454.87,276a63.1,63.1,0,0,1-11.5-18.52Q439,246.81,439,231.92c0-11.39,2.1-21.36,6.32-30a62.33,62.33,0,0,1,17.09-21.49,71.8,71.8,0,0,1,25.35-12.75,110.08,110.08,0,0,1,31-4.25,115.17,115.17,0,0,1,16.85,1.28,125.93,125.93,0,0,1,15.8,3.48,90.35,90.35,0,0,1,13.06,5c3.82,1.83,6.29,3.37,7.53,4.6a14.35,14.35,0,0,1,2.47,3.12,11.39,11.39,0,0,1,1.08,3.42,29.78,29.78,0,0,1,.67,5.32c.11,2.14.21,4.79.21,8,0,3.54-.12,6.53-.28,9a37.74,37.74,0,0,1-.92,6,7,7,0,0,1-1.84,3.49,4.57,4.57,0,0,1-3.2,1.12c-1.38,0-3.51-.88-6.47-2.56a120.43,120.43,0,0,0-10.82-5.61,98.58,98.58,0,0,0-14.89-5.53,66,66,0,0,0-18.54-2.46A43.18,43.18,0,0,0,505.63,203a28.12,28.12,0,0,0-9.81,5.29,21.64,21.64,0,0,0-5.9,8.19A26.25,26.25,0,0,0,488,226.6a22,22,0,0,0,4.35,13.7,40.05,40.05,0,0,0,11.56,10.28A125.91,125.91,0,0,0,520.32,259c6.13,2.65,12.38,5.46,18.74,8.35a190.7,190.7,0,0,1,18.76,10,76.76,76.76,0,0,1,16.35,13.41,61.13,61.13,0,0,1,11.51,18.37c3,7.05,4.45,15.31,4.45,24.86"/><path class="cls-2" d="M683,398.7a5,5,0,0,1-1.24,3.31,8.7,8.7,0,0,1-3.91,2.38,33.76,33.76,0,0,1-7.36,1.42,112.6,112.6,0,0,1-23.41,0,34.57,34.57,0,0,1-7.47-1.42,8.8,8.8,0,0,1-3.92-2.38,5.1,5.1,0,0,1-1.21-3.31V174.28a5.26,5.26,0,0,1,1.21-3.34,8.14,8.14,0,0,1,4.05-2.34,36.6,36.6,0,0,1,7.4-1.5,107.38,107.38,0,0,1,11.58-.54,109.63,109.63,0,0,1,11.77.54,35,35,0,0,1,7.36,1.5,8.1,8.1,0,0,1,3.91,2.34,5.13,5.13,0,0,1,1.24,3.34Z"/><path class="cls-2" d="M906.55,369.34c0,3-.07,5.61-.29,7.79a34.53,34.53,0,0,1-.85,5.47,14.76,14.76,0,0,1-1.43,4,19.34,19.34,0,0,1-2.93,3.78c-1.35,1.41-4,3.21-7.85,5.43a94.5,94.5,0,0,1-14.11,6.34,127,127,0,0,1-42.36,7.07c-16.24,0-31-2.53-44.06-7.53a87.64,87.64,0,0,1-33.43-22.5q-13.77-15-21.11-37.39t-7.36-52.15q0-30.32,8.09-53.82c5.4-15.67,12.9-28.85,22.61-39.49a94.57,94.57,0,0,1,34.75-24.23q20.34-8.26,44.75-8.26a106.82,106.82,0,0,1,19.1,1.65,115.4,115.4,0,0,1,17,4.33,84.12,84.12,0,0,1,14.06,6.14,43.36,43.36,0,0,1,8.71,5.94,19.29,19.29,0,0,1,3.39,4.16,14.93,14.93,0,0,1,1.48,4.21,47.94,47.94,0,0,1,.84,6.06c.17,2.36.27,5.19.27,8.67,0,3.66-.14,6.76-.4,9.33a23,23,0,0,1-1.26,6.23,8.51,8.51,0,0,1-2.21,3.5,4.24,4.24,0,0,1-2.93,1.08c-1.83,0-4.19-1-7-3.2a116.31,116.31,0,0,0-11-7.17,90,90,0,0,0-16-7.14A68.19,68.19,0,0,0,843,204.39a52.2,52.2,0,0,0-44.16,22.3,77.47,77.47,0,0,0-11.85,26A134,134,0,0,0,783,287q0,20.91,4.32,36.29c2.86,10.2,6.94,18.65,12.27,25.24a49.53,49.53,0,0,0,19.31,14.79,63.65,63.65,0,0,0,25.43,4.87,72.18,72.18,0,0,0,22.23-3,93.74,93.74,0,0,0,16.07-6.68c4.44-2.49,8.14-4.65,11-6.64s5.12-2.92,6.74-2.92a4.86,4.86,0,0,1,2.92.76,5.23,5.23,0,0,1,1.85,2.88,31.58,31.58,0,0,1,1.11,6.18c.22,2.63.37,6.12.37,10.59"/><path class="cls-2" d="M1096.94,386.4a77.54,77.54,0,0,1-.45,8.89,25.12,25.12,0,0,1-1.36,5.79,7.83,7.83,0,0,1-2.32,3.21,5.13,5.13,0,0,1-3,1H970.41a14.91,14.91,0,0,1-10.18-3.63c-2.78-2.37-4.16-6.24-4.16-11.65V182.91c0-5.41,1.38-9.32,4.16-11.68a15,15,0,0,1,10.18-3.56h118.66a4.7,4.7,0,0,1,2.93.93,7.21,7.21,0,0,1,2.21,3.2,27,27,0,0,1,1.37,5.86,77.51,77.51,0,0,1,.44,9.09,73.3,73.3,0,0,1-.44,8.72,24.61,24.61,0,0,1-1.37,5.77,8.29,8.29,0,0,1-2.21,3.23,4.61,4.61,0,0,1-2.93,1H1004.2v58H1076a5.15,5.15,0,0,1,3,1,7.66,7.66,0,0,1,2.32,3.12,24.33,24.33,0,0,1,1.35,5.68,67.7,67.7,0,0,1,.48,8.74,67,67,0,0,1-.48,8.84,25,25,0,0,1-1.35,5.61,6.84,6.84,0,0,1-2.32,3,5.47,5.47,0,0,1-3,.92H1004.2v67.05h85.58a5.26,5.26,0,0,1,3,1,7.92,7.92,0,0,1,2.32,3.25,24.69,24.69,0,0,1,1.36,5.76,78.24,78.24,0,0,1,.45,8.92"/><path class="cls-2" d="M1331.15,387.11a57.46,57.46,0,0,1,4.32,10.31c.65,2.56.25,4.55-1.18,5.89s-4.13,2.2-8,2.51a153.29,153.29,0,0,1-16.09.6c-5.72,0-10.25-.15-13.57-.36a42.8,42.8,0,0,1-7.79-1.18,8.76,8.76,0,0,1-4.13-2.33,13.92,13.92,0,0,1-2.22-3.67l-44.62-85.75-44.47,85.75a17.33,17.33,0,0,1-2.34,3.67,9.15,9.15,0,0,1-4.19,2.33,42.57,42.57,0,0,1-7.87,1.18c-3.38.21-7.83.36-13.34.36a128.29,128.29,0,0,1-14.75-.6c-3.5-.31-5.88-1.14-7.07-2.51s-1.49-3.33-.74-5.89a56.06,56.06,0,0,1,4.6-10.31l57-103.74-52.93-97.52a73.23,73.23,0,0,1-4.49-10.56c-.8-2.67-.5-4.59.93-5.89s4-2.11,7.78-2.4,9.21-.45,16.16-.45c5.74,0,10.33.15,13.71.4a41.18,41.18,0,0,1,8,1.17,7.9,7.9,0,0,1,4.15,2.31,17.84,17.84,0,0,1,2.29,3.65l41.69,78.63,40.59-78.63a17,17,0,0,1,2.31-3.65,7.59,7.59,0,0,1,3.88-2.31A33.49,33.49,0,0,1,1296,167c3.09-.25,7.42-.4,12.94-.4,6.11,0,11,.17,14.49.45s6,1.12,7.32,2.47,1.7,3.32,1,5.92a62.81,62.81,0,0,1-4.12,10.46l-52.88,97Z"/><path class="cls-3" d="M286.61,409.22H387.86v-389c-32.5,76-63.41,118.13-101.25,170.56Z"/><g class="cls-4"><g class="cls-5"><g class="cls-6"><path class="cls-7" d="M388.14,176.35l.14-160.5c-32,76.25-63.93,122.94-101.77,175.36L285.76,317"/></g></g></g><path class="cls-8" d="M180.24,410.28H281.5l.84-213.17c-33.26,45.66-68.64,78.41-101.66,108.08Z"/><g class="cls-4"><g class="cls-9"><g class="cls-10"><path class="cls-7" d="M232.58,294.91c-.5.48,49.19,24.11,49.19,24.11l.56-121.91c-33.57,45.66-69,78-102.34,107.67l.38,58.24"/></g></g></g><path class="cls-3" d="M176.47,410V307.62C93.07,382.33,22.59,409.47,22.59,409.47Z"/><g class="cls-4"><g class="cls-11"><g class="cls-12"><path class="cls-7" d="M176.36,364.24l.2-56.79c-28.35,24-54.8,45.85-84.1,64.11-20.18,12.61-36.29,23.16-63,34.92"/></g></g></g><path class="cls-13" d="M49.43,400.81l131.62-38.25s45.17-58.63,52.56-66.51l51,23.24,98.31-137.62"/><polygon class="cls-14" points="387.92 168.19 387.7 179.87 379.58 190.77 381.91 185.1 374.32 190.3 373.32 190.65 387.92 168.19"/><polygon class="cls-14" points="65.3 393.6 62.74 397.35 59.04 401.02 34.65 409.6 22.75 409.58 45.12 399.05 65.3 393.6"/><path class="cls-15" d="M1361.16,395.17V367h12a20.6,20.6,0,0,1,6.55.76,6.37,6.37,0,0,1,3.28,2.73,8,8,0,0,1,1.25,4.43,7.68,7.68,0,0,1-1.86,5.24,9.08,9.08,0,0,1-5.58,2.62,13.17,13.17,0,0,1,3,2.36,36.18,36.18,0,0,1,3.25,4.58l3.44,5.49h-6.82l-4.12-6.13a44.17,44.17,0,0,0-3-4.15,4.56,4.56,0,0,0-1.71-1.17,9.8,9.8,0,0,0-2.89-.31h-1.15v11.76Zm5.7-16.26h4.23a21,21,0,0,0,5.12-.36,3,3,0,0,0,1.6-1.19,3.73,3.73,0,0,0,.58-2.1,3.34,3.34,0,0,0-.78-2.32,3.52,3.52,0,0,0-2.14-1.11c-.44-.05-1.85-.08-4.13-.08h-4.48Z"/><path class="cls-15" d="M1398.16,380.71a24.31,24.31,0,1,1-24.31-24.32,24.32,24.32,0,0,1,24.31,24.32m-24.31,20.55a20.55,20.55,0,1,0-20.54-20.55,20.57,20.57,0,0,0,20.54,20.55"/><rect class="cls-1" x="5.99" y="62" width="1416.41" height="359.09"/><path class="cls-16" d="M616.94,428.51a73.63,73.63,0,0,1,12.19-.95c6.28,0,10.87,1.46,13.79,4.09a13.2,13.2,0,0,1,4.31,10.29c0,4.46-1.31,8-3.8,10.51-3.35,3.58-8.83,5.41-15,5.41a22.12,22.12,0,0,1-5.11-.44v19.71h-6.35Zm6.35,23.72a21,21,0,0,0,5.25.52c7.67,0,12.34-3.73,12.34-10.52,0-6.49-4.6-9.63-11.61-9.63a26.72,26.72,0,0,0-6,.51Z"/><path class="cls-16" d="M654.39,452.82c0-4.16-.08-7.74-.3-11h5.63l.21,6.93h.3C661.83,444,665.7,441,670,441a7.14,7.14,0,0,1,1.82.22v6.06a9.93,9.93,0,0,0-2.19-.22c-4.52,0-7.73,3.43-8.61,8.25a17.73,17.73,0,0,0-.29,3v18.84h-6.35Z"/><path class="cls-16" d="M709.5,459.17c0,13.07-9,18.76-17.59,18.76-9.57,0-16.94-7-16.94-18.18,0-11.82,7.74-18.76,17.52-18.76C702.64,441,709.5,448.37,709.5,459.17Zm-28,.36c0,7.74,4.45,13.58,10.73,13.58,6.13,0,10.73-5.76,10.73-13.72,0-6-3-13.58-10.58-13.58S681.47,452.82,681.47,459.53Z"/><path class="cls-16" d="M717.6,451.36c0-3.65-.07-6.64-.29-9.56h5.62l.29,5.69h.22a12.19,12.19,0,0,1,11.1-6.5,10.44,10.44,0,0,1,10,7.08h.15a14.4,14.4,0,0,1,3.94-4.59,12,12,0,0,1,7.81-2.49c4.67,0,11.61,3.07,11.61,15.33v20.81h-6.28v-20c0-6.79-2.48-10.88-7.67-10.88a8.32,8.32,0,0,0-7.59,5.84,10.64,10.64,0,0,0-.51,3.21v21.83h-6.28V456c0-5.62-2.48-9.71-7.37-9.71-4,0-6.93,3.21-8,6.42a9,9,0,0,0-.51,3.14v21.32H717.6Z"/><path class="cls-16" d="M810.46,459.17c0,13.07-9.05,18.76-17.59,18.76-9.57,0-16.94-7-16.94-18.18,0-11.82,7.74-18.76,17.52-18.76C803.6,441,810.46,448.37,810.46,459.17Zm-28,.36c0,7.74,4.45,13.58,10.73,13.58s10.73-5.76,10.73-13.72c0-6-3-13.58-10.59-13.58S782.43,452.82,782.43,459.53Z"/><path class="cls-16" d="M826.3,431.65V441.8h9.2v4.89h-9.2v19.05c0,4.38,1.24,6.86,4.82,6.86a14.18,14.18,0,0,0,3.72-.44l.29,4.82a15.71,15.71,0,0,1-5.69.88,8.93,8.93,0,0,1-6.94-2.7c-1.82-1.9-2.48-5-2.48-9.2V446.69h-5.47V441.8H820v-8.47Z"/><path class="cls-16" d="M849.88,431.87a4,4,0,0,1-8,0,3.92,3.92,0,0,1,4-4A3.82,3.82,0,0,1,849.88,431.87Zm-7.15,45.26V441.8h6.42v35.33Z"/><path class="cls-16" d="M859.81,451.36c0-3.65-.08-6.64-.3-9.56h5.7l.36,5.84h.15A13,13,0,0,1,877.4,441c4.89,0,12.48,2.92,12.48,15v21.1h-6.42V456.76c0-5.69-2.12-10.44-8.18-10.44a9.12,9.12,0,0,0-8.61,6.57,9.3,9.3,0,0,0-.44,3v21.24h-6.42Z"/><path class="cls-16" d="M930.76,441.8c-.14,2.55-.29,5.4-.29,9.71V472c0,8.1-1.61,13.06-5,16.13s-8.39,4.23-12.84,4.23c-4.24,0-8.91-1-11.76-2.92l1.61-4.89a19.88,19.88,0,0,0,10.36,2.78c6.57,0,11.39-3.43,11.39-12.34v-3.94h-.14c-2,3.28-5.77,5.91-11.25,5.91-8.76,0-15-7.44-15-17.23,0-12,7.81-18.76,15.91-18.76,6.13,0,9.49,3.22,11,6.14h.15l.29-5.33Zm-6.64,13.94a8.88,8.88,0,0,0-.37-2.92,9.24,9.24,0,0,0-9-6.79c-6.13,0-10.51,5.18-10.51,13.36,0,6.93,3.51,12.7,10.44,12.7a9.4,9.4,0,0,0,8.91-6.57,11.28,11.28,0,0,0,.51-3.43Z"/><path class="cls-16" d="M994.27,474.94a45.92,45.92,0,0,1-15.11,2.7c-7.45,0-13.58-1.9-18.4-6.5-4.23-4.09-6.86-10.66-6.86-18.32.07-14.67,10.15-25.4,26.65-25.4a30.47,30.47,0,0,1,12.26,2.26l-1.53,5.18a25.5,25.5,0,0,0-10.88-2.12c-12,0-19.78,7.45-19.78,19.79s7.52,19.85,19,19.85c4.16,0,7-.58,8.46-1.31V456.4h-10v-5.11h16.21Z"/><path class="cls-16" d="M1003.76,425.3h6.42v51.83h-6.42Z"/><path class="cls-16" d="M1053,459.17c0,13.07-9,18.76-17.59,18.76-9.56,0-16.94-7-16.94-18.18,0-11.82,7.74-18.76,17.52-18.76C1046.1,441,1053,448.37,1053,459.17Zm-28,.36c0,7.74,4.45,13.58,10.73,13.58,6.13,0,10.73-5.76,10.73-13.72,0-6-3-13.58-10.58-13.58S1024.93,452.82,1024.93,459.53Z"/><path class="cls-16" d="M1060.77,477.13c.15-2.41.29-6,.29-9.13V425.3h6.36v22.19h.14c2.26-3.94,6.35-6.5,12-6.5,8.76,0,15,7.3,14.89,18,0,12.63-8,18.91-15.84,18.91-5.11,0-9.2-2-11.83-6.64h-.22l-.29,5.84Zm6.65-14.16a11.69,11.69,0,0,0,.29,2.33,9.91,9.91,0,0,0,9.63,7.52c6.72,0,10.73-5.47,10.73-13.58,0-7.08-3.65-13.14-10.51-13.14a10.24,10.24,0,0,0-9.78,7.89,12.36,12.36,0,0,0-.36,2.62Z"/><path class="cls-16" d="M1122.16,477.13l-.51-4.46h-.22a13.13,13.13,0,0,1-10.8,5.26c-7.15,0-10.8-5-10.8-10.15,0-8.54,7.59-13.21,21.24-13.14v-.73c0-2.92-.8-8.17-8-8.17a17.56,17.56,0,0,0-9.2,2.63l-1.46-4.24A21.93,21.93,0,0,1,1114,441c10.8,0,13.43,7.38,13.43,14.46v13.21a50.61,50.61,0,0,0,.58,8.47Zm-.94-18c-7-.15-15,1.09-15,7.95,0,4.16,2.77,6.14,6.06,6.14a8.78,8.78,0,0,0,8.54-5.92,6.61,6.61,0,0,0,.37-2Z"/><path class="cls-16" d="M1137.79,425.3h6.42v51.83h-6.42Z"/><path class="cls-16" d="M1177.06,433.33h-15v-5.4h36.43v5.4h-15v43.8h-6.42Z"/><path class="cls-16" d="M1200.49,452.82c0-4.16-.07-7.74-.29-11h5.62l.22,6.93h.29c1.61-4.74,5.48-7.74,9.78-7.74a7.23,7.23,0,0,1,1.83.22v6.06a10,10,0,0,0-2.19-.22c-4.53,0-7.74,3.43-8.61,8.25a17.67,17.67,0,0,0-.3,3v18.84h-6.35Z"/><path class="cls-16" d="M1243.56,477.13l-.51-4.46h-.22a13.13,13.13,0,0,1-10.8,5.26c-7.15,0-10.81-5-10.81-10.15,0-8.54,7.6-13.21,21.25-13.14v-.73c0-2.92-.81-8.17-8-8.17a17.56,17.56,0,0,0-9.2,2.63l-1.46-4.24a21.9,21.9,0,0,1,11.61-3.14c10.8,0,13.43,7.38,13.43,14.46v13.21a49.57,49.57,0,0,0,.58,8.47Zm-1-18c-7-.15-15,1.09-15,7.95,0,4.16,2.77,6.14,6.06,6.14a8.78,8.78,0,0,0,8.54-5.92,6.59,6.59,0,0,0,.36-2Z"/><path class="cls-16" d="M1289.7,425.3V468c0,3.14.07,6.72.29,9.13h-5.77l-.29-6.13h-.14c-2,3.94-6.28,6.93-12,6.93-8.54,0-15.11-7.23-15.11-18-.07-11.75,7.23-19,15.84-19,5.4,0,9,2.56,10.66,5.41h.14V425.3Zm-6.43,30.88a11.22,11.22,0,0,0-.29-2.7,9.45,9.45,0,0,0-9.27-7.45c-6.64,0-10.58,5.84-10.58,13.65,0,7.15,3.5,13.07,10.43,13.07a9.66,9.66,0,0,0,9.42-7.67,11.06,11.06,0,0,0,.29-2.77Z"/><path class="cls-16" d="M1303.93,460.63c.15,8.69,5.7,12.26,12.12,12.26a23.26,23.26,0,0,0,9.78-1.82l1.1,4.6a28.68,28.68,0,0,1-11.76,2.19c-10.87,0-17.37-7.16-17.37-17.81s6.28-19.06,16.57-19.06c11.54,0,14.6,10.15,14.6,16.65a22.92,22.92,0,0,1-.22,3Zm18.84-4.6c.07-4.09-1.68-10.44-8.91-10.44-6.5,0-9.34,6-9.85,10.44Z"/><path class="cls-16" d="M1334.52,473.33a4.32,4.32,0,0,1,4.38-4.6,4.61,4.61,0,1,1-4.38,4.6Z"/></svg>